<?xml version="1.0" encoding="UTF-8"?><svg xmlns="http://www.w3.org/2000/svg" xmlns:xlink="http://www.w3.org/1999/xlink" stroke-dasharray="none" shape-rendering="auto" font-family="'Dialog'" width="1126" text-rendering="auto" fill-opacity="1" contentScriptType="text/ecmascript" color-interpolation="auto" color-rendering="auto" preserveAspectRatio="xMidYMid meet" font-size="12px" viewBox="0 0 1126 1020" fill="black" stroke="black" image-rendering="auto" stroke-miterlimit="10" zoomAndPan="magnify" version="1.0" stroke-linecap="square" stroke-linejoin="miter" contentStyleType="text/css" font-style="normal" height="1020" stroke-width="1" stroke-dashoffset="0" font-weight="normal" stroke-opacity="1">
    <!--Generated by the Batik Graphics2D SVG Generator-->
    <defs id="genericDefs"/>
    <g>
        <defs id="defs1">
            <linearGradient x1="50" x2="50" y1="50" gradientUnits="userSpaceOnUse" y2="813" xlink:type="simple" xlink:actuate="onLoad" id="linearGradient1" xlink:show="other" spreadMethod="pad">
                <stop stop-opacity="1" stop-color="white" offset="0%"/>
                <stop stop-opacity="1" stop-color="white" offset="100%"/>
            </linearGradient>
            <linearGradient x1="158" x2="158" y1="94" gradientUnits="userSpaceOnUse" y2="794" xlink:type="simple" xlink:actuate="onLoad" id="linearGradient2" xlink:show="other" spreadMethod="pad">
                <stop stop-opacity="1" stop-color="white" offset="0%"/>
                <stop stop-opacity="1" stop-color="rgb(195,209,213)" offset="100%"/>
            </linearGradient>
            <linearGradient x1="372" x2="372" y1="94" gradientUnits="userSpaceOnUse" y2="794" xlink:type="simple" xlink:actuate="onLoad" id="linearGradient3" xlink:show="other" spreadMethod="pad">
                <stop stop-opacity="1" stop-color="white" offset="0%"/>
                <stop stop-opacity="1" stop-color="rgb(195,209,213)" offset="100%"/>
            </linearGradient>
            <linearGradient x1="584" x2="584" y1="94" gradientUnits="userSpaceOnUse" y2="794" xlink:type="simple" xlink:actuate="onLoad" id="linearGradient4" xlink:show="other" spreadMethod="pad">
                <stop stop-opacity="1" stop-color="white" offset="0%"/>
                <stop stop-opacity="1" stop-color="rgb(195,209,213)" offset="100%"/>
            </linearGradient>
            <linearGradient x1="750" x2="750" y1="94" gradientUnits="userSpaceOnUse" y2="794" xlink:type="simple" xlink:actuate="onLoad" id="linearGradient5" xlink:show="other" spreadMethod="pad">
                <stop stop-opacity="1" stop-color="white" offset="0%"/>
                <stop stop-opacity="1" stop-color="rgb(195,209,213)" offset="100%"/>
            </linearGradient>
            <linearGradient x1="917" x2="917" y1="94" gradientUnits="userSpaceOnUse" y2="794" xlink:type="simple" xlink:actuate="onLoad" id="linearGradient6" xlink:show="other" spreadMethod="pad">
                <stop stop-opacity="1" stop-color="white" offset="0%"/>
                <stop stop-opacity="1" stop-color="rgb(195,209,213)" offset="100%"/>
            </linearGradient>
            <clipPath clipPathUnits="userSpaceOnUse" id="clipPath1">
                <path d="M50 50 L50 812 L1115 812 L1115 50 Z"/>
            </clipPath>
            <clipPath clipPathUnits="userSpaceOnUse" id="clipPath2">
                <path d="M47 47 L1119 47 L1119 816 L47 816 L47 47 Z"/>
            </clipPath>
            <clipPath clipPathUnits="userSpaceOnUse" id="clipPath3">
                <path d="M55 52 L171 52 L171 79 L55 79 L55 52 Z"/>
            </clipPath>
            <clipPath clipPathUnits="userSpaceOnUse" id="clipPath4">
                <path d="M157 93 L312 93 L312 795 L157 795 L157 93 Z"/>
            </clipPath>
            <clipPath clipPathUnits="userSpaceOnUse" id="clipPath5">
                <path d="M158 94 L158 793 L310 793 L310 94 Z"/>
            </clipPath>
            <clipPath clipPathUnits="userSpaceOnUse" id="clipPath6">
                <path d="M171 96 L299 96 L299 123 L171 123 L171 96 Z"/>
            </clipPath>
            <clipPath clipPathUnits="userSpaceOnUse" id="clipPath7">
                <path d="M371 93 L473 93 L473 795 L371 795 L371 93 Z"/>
            </clipPath>
            <clipPath clipPathUnits="userSpaceOnUse" id="clipPath8">
                <path d="M372 94 L372 793 L471 793 L471 94 Z"/>
            </clipPath>
            <clipPath clipPathUnits="userSpaceOnUse" id="clipPath9">
                <path d="M390 96 L456 96 L456 123 L390 123 L390 96 Z"/>
            </clipPath>
            <clipPath clipPathUnits="userSpaceOnUse" id="clipPath10">
                <path d="M583 93 L685 93 L685 795 L583 795 L583 93 Z"/>
            </clipPath>
            <clipPath clipPathUnits="userSpaceOnUse" id="clipPath11">
                <path d="M584 94 L584 793 L683 793 L683 94 Z"/>
            </clipPath>
            <clipPath clipPathUnits="userSpaceOnUse" id="clipPath12">
                <path d="M602 96 L668 96 L668 123 L602 123 L602 96 Z"/>
            </clipPath>
            <clipPath clipPathUnits="userSpaceOnUse" id="clipPath13">
                <path d="M749 93 L851 93 L851 795 L749 795 L749 93 Z"/>
            </clipPath>
            <clipPath clipPathUnits="userSpaceOnUse" id="clipPath14">
                <path d="M750 94 L750 793 L849 793 L849 94 Z"/>
            </clipPath>
            <clipPath clipPathUnits="userSpaceOnUse" id="clipPath15">
                <path d="M768 96 L834 96 L834 123 L768 123 L768 96 Z"/>
            </clipPath>
            <clipPath clipPathUnits="userSpaceOnUse" id="clipPath16">
                <path d="M916 93 L1112 93 L1112 795 L916 795 L916 93 Z"/>
            </clipPath>
            <clipPath clipPathUnits="userSpaceOnUse" id="clipPath17">
                <path d="M917 94 L917 793 L1110 793 L1110 94 Z"/>
            </clipPath>
            <clipPath clipPathUnits="userSpaceOnUse" id="clipPath18">
                <path d="M954 96 L1076 96 L1076 123 L954 123 L954 96 Z"/>
            </clipPath>
            <clipPath clipPathUnits="userSpaceOnUse" id="clipPath19">
                <path d="M49 49 L1117 49 L1117 814 L49 814 L49 49 Z"/>
            </clipPath>
        </defs>
        <g font-size="18px" fill="url(#linearGradient1)" font-family="'Segoe UI'" stroke-linejoin="round" stroke="url(#linearGradient1)" stroke-width="0" stroke-miterlimit="0">
            <rect x="50" width="1066" height="763" y="50" clip-path="url(#clipPath1)" stroke="none"/>
        </g>
        <g font-size="18px" stroke-width="0.1" font-family="'Segoe UI'" stroke-linecap="butt">
            <line y2="67" fill="none" x1="184" clip-path="url(#clipPath2)" x2="184" y1="50"/>
            <line y2="67" fill="none" x1="184" clip-path="url(#clipPath2)" x2="184" y1="67"/>
            <line y2="78" fill="none" x1="184" clip-path="url(#clipPath2)" x2="173" y1="67"/>
            <line y2="78" fill="none" x1="173" clip-path="url(#clipPath2)" x2="173" y1="78"/>
            <line y2="78" fill="none" x1="173" clip-path="url(#clipPath2)" x2="50" y1="78"/>
            <text x="56" xml:space="preserve" y="73" clip-path="url(#clipPath3)" stroke="none">Interaction14  </text>
            <rect x="158" y="94" clip-path="url(#clipPath4)" fill="none" width="152" height="28" stroke-width="1.1"/>
            <line clip-path="url(#clipPath4)" fill="none" x1="234" x2="234" y1="122" y2="793" stroke-dasharray="5,5" stroke-width="1.1"/>
        </g>
        <g stroke-linecap="butt" font-size="18px" fill="url(#linearGradient2)" font-family="'Segoe UI'" stroke-dasharray="5,5" stroke="url(#linearGradient2)" stroke-width="1.1">
            <rect x="158" y="94" clip-path="url(#clipPath5)" width="153" height="700" opacity="0" stroke="none"/>
            <text fill="black" x="172" xml:space="preserve" y="117" clip-path="url(#clipPath6)" stroke="none">FINESS+ (Front)</text>
            <rect x="372" y="94" clip-path="url(#clipPath7)" fill="none" width="99" stroke-dasharray="none" height="28" stroke="black"/>
            <line clip-path="url(#clipPath7)" fill="none" x1="422" x2="422" y1="122" y2="793" stroke="black"/>
            <rect x="372" y="94" clip-path="url(#clipPath8)" fill="url(#linearGradient3)" width="100" opacity="0" height="700" stroke="none"/>
            <text fill="black" x="391" xml:space="preserve" y="117" clip-path="url(#clipPath9)" stroke="none">Lifeline2</text>
            <rect x="584" y="94" clip-path="url(#clipPath10)" fill="none" width="99" stroke-dasharray="none" height="28" stroke="black"/>
            <line clip-path="url(#clipPath10)" fill="none" x1="634" x2="634" y1="122" y2="793" stroke="black"/>
            <rect x="584" y="94" clip-path="url(#clipPath11)" fill="url(#linearGradient4)" width="100" opacity="0" height="700" stroke="none"/>
            <text fill="black" x="603" xml:space="preserve" y="117" clip-path="url(#clipPath12)" stroke="none">Lifeline3</text>
            <rect x="750" y="94" clip-path="url(#clipPath13)" fill="none" width="99" stroke-dasharray="none" height="28" stroke="black"/>
            <line clip-path="url(#clipPath13)" fill="none" x1="800" x2="800" y1="122" y2="793" stroke="black"/>
            <rect x="750" y="94" clip-path="url(#clipPath14)" fill="url(#linearGradient5)" width="100" opacity="0" height="700" stroke="none"/>
            <text fill="black" x="769" xml:space="preserve" y="117" clip-path="url(#clipPath15)" stroke="none">Lifeline4</text>
            <rect x="917" y="94" clip-path="url(#clipPath16)" fill="none" width="193" stroke-dasharray="none" height="28" stroke="black"/>
            <line clip-path="url(#clipPath16)" fill="none" x1="1014" x2="1014" y1="122" y2="793" stroke="black"/>
            <rect x="917" y="94" clip-path="url(#clipPath17)" fill="url(#linearGradient6)" width="194" opacity="0" height="700" stroke="none"/>
            <text fill="black" x="955" xml:space="preserve" y="117" clip-path="url(#clipPath18)" stroke="none">FINESS+ (Back)</text>
            <rect x="50" y="50" clip-path="url(#clipPath19)" fill="none" width="1065" stroke-dasharray="none" rx="0" ry="0" height="762" stroke="black"/>
        </g>
    </g>
</svg>
